<svg width="512" height="512" viewBox="0 0 512 512" fill="none" xmlns="http://www.w3.org/2000/svg">
  <rect width="512" height="512" rx="64" fill="#0f172a"/>

  <!-- Outer ring -->
  <circle cx="256" cy="256" r="180" stroke="#22d3ee" stroke-width="4" stroke-opacity="0.3" fill="none"/>

  <!-- Tick marks on outer ring -->
  <line x1="256" y1="68" x2="256" y2="92" stroke="#22d3ee" stroke-width="4" stroke-opacity="0.6"/>
  <line x1="256" y1="420" x2="256" y2="444" stroke="#22d3ee" stroke-width="4" stroke-opacity="0.6"/>
  <line x1="68" y1="256" x2="92" y2="256" stroke="#22d3ee" stroke-width="4" stroke-opacity="0.6"/>
  <line x1="420" y1="256" x2="444" y2="256" stroke="#22d3ee" stroke-width="4" stroke-opacity="0.6"/>

  <!-- Inner targeting ring -->
  <circle cx="256" cy="256" r="120" stroke="#22d3ee" stroke-width="3" stroke-opacity="0.5" fill="none"/>

  <!-- Crosshair lines -->
  <line x1="256" y1="120" x2="256" y2="216" stroke="#22d3ee" stroke-width="3" stroke-opacity="0.8"/>
  <line x1="256" y1="296" x2="256" y2="392" stroke="#22d3ee" stroke-width="3" stroke-opacity="0.8"/>
  <line x1="120" y1="256" x2="216" y2="256" stroke="#22d3ee" stroke-width="3" stroke-opacity="0.8"/>
  <line x1="296" y1="256" x2="392" y2="256" stroke="#22d3ee" stroke-width="3" stroke-opacity="0.8"/>

  <!-- Corner brackets -->
  <path d="M160 176 L160 160 L176 160" stroke="#22d3ee" stroke-width="4" fill="none" stroke-linecap="round"/>
  <path d="M352 176 L352 160 L336 160" stroke="#22d3ee" stroke-width="4" fill="none" stroke-linecap="round"/>
  <path d="M160 336 L160 352 L176 352" stroke="#22d3ee" stroke-width="4" fill="none" stroke-linecap="round"/>
  <path d="M352 336 L352 352 L336 352" stroke="#22d3ee" stroke-width="4" fill="none" stroke-linecap="round"/>

  <!-- Center dot -->
  <circle cx="256" cy="256" r="6" fill="#22d3ee"/>

  <!-- Inner diamond -->
  <path d="M256 232 L280 256 L256 280 L232 256 Z" stroke="#22d3ee" stroke-width="2" stroke-opacity="0.6" fill="none"/>

  <!-- Small diagonal ticks -->
  <line x1="178" y1="178" x2="192" y2="192" stroke="#22d3ee" stroke-width="2" stroke-opacity="0.4"/>
  <line x1="334" y1="178" x2="320" y2="192" stroke="#22d3ee" stroke-width="2" stroke-opacity="0.4"/>
  <line x1="178" y1="334" x2="192" y2="320" stroke="#22d3ee" stroke-width="2" stroke-opacity="0.4"/>
  <line x1="334" y1="334" x2="320" y2="320" stroke="#22d3ee" stroke-width="2" stroke-opacity="0.4"/>
</svg>
